<svg width="400" height="400" viewBox="0 0 400 400" fill="none" xmlns="http://www.w3.org/2000/svg">
<path d="M0 0H400V400H0V0Z" fill="#2D82FF"/>
<path d="M265.624 126.82C259.42 130.292 253.234 133.772 247.031 137.21C225.162 149.332 203.251 161.388 181.46 173.627C178.567 175.25 176.452 175.317 173.619 173.585C167.927 170.105 161.975 166.999 155.355 163.311C177.639 150.931 199.265 138.917 221.593 126.512C214.358 122.457 207.6 118.686 200.859 114.889C199.404 114.073 198.364 115.022 197.29 115.614C173.299 128.91 149.342 142.256 125.325 155.518C123.211 156.684 122.293 157.974 122.302 160.389C122.38 186.889 122.371 213.382 122.302 239.882C122.293 242.23 123.038 243.645 125.239 244.803C131.399 248.041 137.421 251.521 144.248 255.318C144.248 230.566 144.248 206.555 144.248 181.636C151.768 185.815 158.44 189.562 165.154 193.25C166.74 194.116 166.645 195.498 166.645 196.863C166.662 227.527 166.636 258.182 166.714 288.845C166.723 292.117 165.562 291.867 163.248 290.577C143.026 279.329 122.787 268.114 102.504 256.958C100.607 255.917 99.9914 254.668 100 252.637C100.061 217.678 100.069 182.718 100 147.759C99.9914 145.461 100.919 144.287 102.868 143.213C134.379 125.796 165.856 108.337 197.316 90.853C198.806 90.0205 200.088 89.6042 201.708 90.5117C222.771 102.292 243.86 114.048 264.922 125.821C265.156 125.929 265.243 126.254 265.624 126.82Z" fill="white"/>
<path d="M210.953 230.682C240.662 214.223 269.661 198.154 299.457 181.644C299.457 189.995 299.466 197.438 299.449 204.873C299.44 207.196 297.274 207.604 295.732 208.461C269.02 223.306 242.317 238.167 215.51 252.854C212.097 254.718 210.598 256.733 210.832 260.596C211.196 266.666 210.927 272.777 210.927 279.82C240.567 263.394 269.575 247.325 299.405 230.791C299.405 239.1 299.431 246.759 299.388 254.427C299.379 256.142 297.664 256.533 296.477 257.191C271.385 271.137 246.277 285.04 221.177 298.961C215.311 302.216 209.359 305.355 203.623 308.819C200.972 310.417 199.022 310.3 196.155 309.027C190.263 306.396 188.253 302.807 188.34 296.313C188.79 263.868 188.591 231.407 188.47 198.953C188.452 195.398 189.449 193.375 192.854 191.51C223.802 174.567 254.62 157.408 285.43 140.224C287.579 139.025 289.294 138.634 291.235 140.257C291.556 140.524 291.989 140.665 292.361 140.874C299.518 144.837 300.947 148.017 299.483 155.935C299.163 157.65 297.906 158.133 296.702 158.799C269.861 173.702 243.062 188.671 216.091 203.366C212.175 205.497 210.528 207.729 210.84 212.075C211.274 217.961 210.953 223.889 210.953 230.682Z" fill="white"/>
</svg>
