<svg width="25" height="25" viewBox="0 0 25 25" fill="none" xmlns="http://www.w3.org/2000/svg">
<path d="M17.9171 13.1658C17.7961 13.1658 17.6851 13.1456 17.5842 13.1053C17.4833 13.0649 17.3825 12.9943 17.2816 12.8934L12.1066 7.71842C12.0057 7.61754 11.9351 7.51667 11.8947 7.41579C11.8544 7.31491 11.8342 7.20395 11.8342 7.08289C11.8342 6.96184 11.8544 6.85088 11.8947 6.75C11.9351 6.64912 12.0057 6.54825 12.1066 6.44737L17.2816 1.27237C17.3825 1.17149 17.4833 1.10088 17.5842 1.06053C17.6851 1.02018 17.7961 1 17.9171 1C18.0382 1 18.1491 1.02018 18.25 1.06053C18.3509 1.10088 18.4518 1.17149 18.5526 1.27237L23.7276 6.44737C23.8285 6.54825 23.8991 6.64912 23.9395 6.75C23.9798 6.85088 24 6.96184 24 7.08289C24 7.20395 23.9798 7.31491 23.9395 7.41579C23.8991 7.51667 23.8285 7.61754 23.7276 7.71842L18.5526 12.8934C18.4518 12.9943 18.3509 13.0649 18.25 13.1053C18.1491 13.1456 18.0382 13.1658 17.9171 13.1658ZM1.90789 11.35C1.64561 11.35 1.42873 11.2643 1.25724 11.0928C1.08575 10.9213 1 10.7044 1 10.4421V3.14868C1 2.8864 1.08575 2.66952 1.25724 2.49803C1.42873 2.32654 1.64561 2.24079 1.90789 2.24079H9.20132C9.4636 2.24079 9.68048 2.32654 9.85197 2.49803C10.0235 2.66952 10.1092 2.8864 10.1092 3.14868V10.4421C10.1092 10.7044 10.0235 10.9213 9.85197 11.0928C9.68048 11.2643 9.4636 11.35 9.20132 11.35H1.90789ZM14.5579 24C14.2956 24 14.0787 23.9143 13.9072 23.7428C13.7357 23.5713 13.65 23.3544 13.65 23.0921V15.7987C13.65 15.5364 13.7357 15.3195 13.9072 15.148C14.0787 14.9765 14.2956 14.8908 14.5579 14.8908H21.8513C22.1136 14.8908 22.3305 14.9765 22.502 15.148C22.6735 15.3195 22.7592 15.5364 22.7592 15.7987V23.0921C22.7592 23.3544 22.6735 23.5713 22.502 23.7428C22.3305 23.9143 22.1136 24 21.8513 24H14.5579ZM1.90789 24C1.64561 24 1.42873 23.9143 1.25724 23.7428C1.08575 23.5713 1 23.3544 1 23.0921V15.7987C1 15.5364 1.08575 15.3195 1.25724 15.148C1.42873 14.9765 1.64561 14.8908 1.90789 14.8908H9.20132C9.4636 14.8908 9.68048 14.9765 9.85197 15.148C10.0235 15.3195 10.1092 15.5364 10.1092 15.7987V23.0921C10.1092 23.3544 10.0235 23.5713 9.85197 23.7428C9.68048 23.9143 9.4636 24 9.20132 24H1.90789ZM2.81579 9.53421H8.29342V4.05658H2.81579V9.53421ZM18.0079 11.0776L21.9118 7.17368L18.0079 3.26974L14.1039 7.17368L18.0079 11.0776ZM15.4658 22.1842H20.9434V16.7066H15.4658V22.1842ZM2.81579 22.1842H8.29342V16.7066H2.81579V22.1842Z" fill="black"/>
</svg>
