<svg width="25" height="25" viewBox="0 0 25 25" fill="none" xmlns="http://www.w3.org/2000/svg">
<path d="M4.875 22.1277H9.5625V14.3262H16.4375V22.1277H21.125V9.95745L13 3.87234L4.875 9.95745V22.1277ZM4.875 24C4.35417 24 3.91146 23.818 3.54688 23.4539C3.18229 23.0898 3 22.6478 3 22.1277V9.95745C3 9.66619 3.06771 9.38534 3.20312 9.11489C3.33854 8.84444 3.52083 8.626 3.75 8.45957L11.875 2.37447C12.0417 2.24965 12.2188 2.15603 12.4062 2.09362C12.5938 2.03121 12.7917 2 13 2C13.2083 2 13.4062 2.03121 13.5938 2.09362C13.7812 2.15603 13.9583 2.24965 14.125 2.37447L22.25 8.45957C22.4792 8.626 22.6615 8.84444 22.7969 9.11489C22.9323 9.38534 23 9.66619 23 9.95745V22.1277C23 22.6478 22.8177 23.0898 22.4531 23.4539C22.0885 23.818 21.6458 24 21.125 24H14.5625V16.1986H11.4375V24H4.875Z" fill="black"/>
</svg>
