<svg width="325" height="270" viewBox="0 0 325 270" fill="none" xmlns="http://www.w3.org/2000/svg">
<path d="M80.3938 19.9058C80.3938 8.91212 88.7474 0 99.052 0H199.976C210.281 0 218.634 8.91212 218.634 19.9058V248.822C218.634 259.816 210.281 268.728 199.976 268.728H99.0521C88.7474 268.728 80.3938 259.816 80.3938 248.822V19.9058Z" fill="#3F3D56"/>
<path d="M116.862 2.71442H99.9002C90.5323 2.71442 82.9381 10.8163 82.9381 20.8106V247.917C82.9381 257.912 90.5323 266.013 99.9002 266.013H199.128C208.496 266.013 216.09 257.912 216.09 247.917V20.8106C216.09 10.8163 208.496 2.71442 199.128 2.71442H182.166V7.23846C182.166 10.9863 179.318 14.0245 175.805 14.0245H123.223C119.71 14.0245 116.862 10.9863 116.862 7.23846V2.71442Z" fill="white"/>
<path d="M79.6962 54.5147C79.2465 54.5141 78.8154 54.3233 78.4974 53.984C78.1794 53.6448 78.0005 53.1848 78 52.7051V49.0858C78 48.6059 78.1787 48.1456 78.4968 47.8062C78.8149 47.4669 79.2463 47.2762 79.6962 47.2762C80.1461 47.2762 80.5775 47.4669 80.8956 47.8062C81.2137 48.1456 81.3924 48.6059 81.3924 49.0858V52.7051C81.3919 53.1848 81.213 53.6448 80.895 53.984C80.577 54.3233 80.1459 54.5141 79.6962 54.5147Z" fill="#3F3D56"/>
<path d="M79.6962 73.0729C79.2465 73.0724 78.8154 72.8815 78.4974 72.5423C78.1794 72.203 78.0005 71.7431 78 71.2633V61.3007C78 60.8208 78.1787 60.3605 78.4968 60.0211C78.8149 59.6817 79.2463 59.4911 79.6962 59.4911C80.1461 59.4911 80.5775 59.6817 80.8956 60.0211C81.2137 60.3605 81.3924 60.8208 81.3924 61.3007V71.2633C81.3919 71.7431 81.213 72.203 80.895 72.5423C80.577 72.8815 80.1459 73.0724 79.6962 73.0729Z" fill="#3F3D56"/>
<path d="M79.6962 87.9925C79.2465 87.992 78.8154 87.8012 78.4974 87.4619C78.1794 87.1227 78.0005 86.6627 78 86.1829V76.2203C78 75.7404 78.1787 75.2801 78.4968 74.9407C78.8149 74.6014 79.2463 74.4107 79.6962 74.4107C80.1461 74.4107 80.5775 74.6014 80.8956 74.9407C81.2137 75.2801 81.3924 75.7404 81.3924 76.2203V86.1829C81.3919 86.6627 81.213 87.1227 80.895 87.4619C80.577 87.8012 80.1459 87.992 79.6962 87.9925Z" fill="#3F3D56"/>
<path d="M218.785 79.8493C218.335 79.8487 217.904 79.6579 217.586 79.3186C217.268 78.9794 217.089 78.5194 217.089 78.0396V53.7305C217.089 53.2505 217.267 52.7902 217.585 52.4509C217.904 52.1115 218.335 51.9208 218.785 51.9208C219.235 51.9208 219.666 52.1115 219.984 52.4509C220.302 52.7902 220.481 53.2505 220.481 53.7305V78.0396C220.481 78.5194 220.302 78.9794 219.984 79.3186C219.666 79.6579 219.235 79.8487 218.785 79.8493Z" fill="#3F3D56"/>
<path d="M153.096 8.29971H139.951C139.669 8.29971 139.4 8.18055 139.201 7.96844C139.002 7.75634 138.891 7.46866 138.891 7.1687C138.891 6.86874 139.002 6.58106 139.201 6.36896C139.4 6.15685 139.669 6.03769 139.951 6.03769H153.096C153.377 6.03769 153.647 6.15685 153.846 6.36896C154.045 6.58106 154.156 6.86874 154.156 7.1687C154.156 7.46866 154.045 7.75634 153.846 7.96844C153.647 8.18055 153.377 8.29971 153.096 8.29971Z" fill="white"/>
<path d="M159.881 8.0735C160.349 8.0735 160.729 7.6684 160.729 7.16869C160.729 6.66898 160.349 6.26389 159.881 6.26389C159.413 6.26389 159.033 6.66898 159.033 7.16869C159.033 7.6684 159.413 8.0735 159.881 8.0735Z" fill="white"/>
<path d="M111.748 13.1528H100.299C99.7366 13.1528 99.1973 12.9144 98.7997 12.4902C98.4021 12.066 98.1787 11.4907 98.1787 10.8907C98.1787 10.2908 98.4021 9.71546 98.7997 9.29125C99.1973 8.86704 99.7366 8.62872 100.299 8.62872H111.748C112.311 8.62872 112.85 8.86704 113.248 9.29125C113.645 9.71546 113.869 10.2908 113.869 10.8907C113.869 11.4907 113.645 12.066 113.248 12.4902C112.85 12.9144 112.311 13.1528 111.748 13.1528Z" fill="#E6E6E6"/>
<path d="M155.177 107.987H143.728C143.166 107.987 142.626 107.748 142.229 107.324C141.831 106.9 141.608 106.324 141.608 105.725C141.608 105.125 141.831 104.549 142.229 104.125C142.626 103.701 143.166 103.463 143.728 103.463H155.177C155.74 103.463 156.279 103.701 156.677 104.125C157.074 104.549 157.298 105.125 157.298 105.725C157.298 106.324 157.074 106.9 156.677 107.324C156.279 107.748 155.74 107.987 155.177 107.987Z" fill="#E6E6E6"/>
<path d="M186.805 12.9266C187.859 12.9266 188.714 12.0151 188.714 10.8907C188.714 9.76639 187.859 8.85492 186.805 8.85492C185.752 8.85492 184.897 9.76639 184.897 10.8907C184.897 12.0151 185.752 12.9266 186.805 12.9266Z" fill="#E6E6E6"/>
<path d="M192.742 12.9266C193.796 12.9266 194.65 12.0151 194.65 10.8907C194.65 9.76639 193.796 8.85492 192.742 8.85492C191.688 8.85492 190.834 9.76639 190.834 10.8907C190.834 12.0151 191.688 12.9266 192.742 12.9266Z" fill="#E6E6E6"/>
<path d="M198.679 12.9266C199.733 12.9266 200.587 12.0151 200.587 10.8907C200.587 9.76639 199.733 8.85492 198.679 8.85492C197.625 8.85492 196.771 9.76639 196.771 10.8907C196.771 12.0151 197.625 12.9266 198.679 12.9266Z" fill="#E6E6E6"/>
<path d="M186.049 139.655H106.865C104.827 139.652 102.872 138.787 101.43 137.249C99.9889 135.711 99.178 133.626 99.1757 131.451V122.976C99.178 120.801 99.9889 118.716 101.43 117.178C102.872 115.64 104.827 114.775 106.865 114.773H186.049C188.088 114.775 190.043 115.64 191.484 117.178C192.926 118.716 193.737 120.801 193.739 122.976V131.451C193.737 133.626 192.926 135.711 191.484 137.249C190.043 138.787 188.088 139.652 186.049 139.655ZM106.865 115.677C105.051 115.68 103.312 116.449 102.03 117.818C100.747 119.186 100.026 121.041 100.024 122.976V131.451C100.026 133.386 100.747 135.241 102.03 136.61C103.312 137.978 105.051 138.748 106.865 138.75H186.049C187.863 138.748 189.602 137.978 190.885 136.61C192.167 135.241 192.889 133.386 192.891 131.451V122.976C192.889 121.041 192.167 119.186 190.885 117.818C189.602 116.449 187.863 115.68 186.049 115.677H106.865Z" fill="#E6E6E6"/>
<path d="M155.177 170.871H143.728C143.166 170.871 142.626 170.632 142.229 170.208C141.831 169.784 141.608 169.209 141.608 168.609C141.608 168.009 141.831 167.433 142.229 167.009C142.626 166.585 143.166 166.347 143.728 166.347H155.177C155.74 166.347 156.279 166.585 156.677 167.009C157.074 167.433 157.298 168.009 157.298 168.609C157.298 169.209 157.074 169.784 156.677 170.208C156.279 170.632 155.74 170.871 155.177 170.871Z" fill="#E6E6E6"/>
<path d="M157.808 236.469H141.098C140.691 236.47 140.288 236.385 139.913 236.219C139.537 236.053 139.195 235.81 138.907 235.504C138.62 235.197 138.391 234.833 138.236 234.432C138.08 234.031 138 233.602 138 233.168C138 232.734 138.08 232.304 138.236 231.904C138.391 231.503 138.62 231.139 138.907 230.832C139.195 230.526 139.537 230.282 139.913 230.117C140.288 229.951 140.691 229.866 141.098 229.867H157.808C158.628 229.867 159.415 230.214 159.996 230.834C160.576 231.453 160.902 232.292 160.902 233.168C160.902 234.043 160.576 234.883 159.996 235.502C159.415 236.121 158.628 236.469 157.808 236.469Z" fill="#4A9DFF"/>
<path d="M186.049 202.539H106.865C104.827 202.536 102.872 201.671 101.43 200.133C99.9889 198.595 99.178 196.51 99.1757 194.335V185.861C99.178 183.686 99.9889 181.6 101.43 180.062C102.872 178.524 104.827 177.659 106.865 177.657H186.049C188.088 177.659 190.043 178.524 191.484 180.062C192.926 181.6 193.737 183.686 193.739 185.861V194.335C193.737 196.51 192.926 198.595 191.484 200.133C190.043 201.671 188.088 202.536 186.049 202.539ZM106.865 178.562C105.051 178.564 103.312 179.333 102.03 180.702C100.747 182.07 100.026 183.925 100.024 185.861V194.335C100.026 196.27 100.747 198.126 102.03 199.494C103.312 200.862 105.051 201.632 106.865 201.634H186.049C187.863 201.632 189.602 200.862 190.885 199.494C192.167 198.126 192.889 196.27 192.891 194.335V185.861C192.889 183.925 192.167 182.07 190.885 180.702C189.602 179.333 187.863 178.564 186.049 178.562H106.865Z" fill="#E6E6E6"/>
<path d="M200.587 87.5402H98.1787V88.445H200.587V87.5402Z" fill="#E6E6E6"/>
<path d="M196.416 123.445C196.522 124.201 196.919 124.886 197.523 125.354C198.126 125.822 198.888 126.036 199.647 125.951C199.801 125.931 199.953 125.898 200.102 125.853L206.18 134.079L211.439 132.464L201.895 122.096C201.661 121.494 201.234 120.986 200.681 120.652C200.129 120.319 199.481 120.177 198.84 120.25C198.475 120.295 198.123 120.411 197.803 120.592C197.483 120.773 197.203 121.016 196.976 121.305C196.75 121.595 196.584 121.926 196.486 122.28C196.388 122.634 196.36 123.004 196.405 123.369C196.408 123.394 196.412 123.42 196.416 123.445Z" fill="#FFB6B6"/>
<path d="M272.9 181.196C272.357 180.659 272.045 179.931 272.03 179.167C272.016 178.404 272.299 177.665 272.821 177.107C272.929 176.996 273.046 176.893 273.171 176.801L270.207 167.012L274.645 163.761L277.255 177.609C277.598 178.156 277.75 178.801 277.688 179.444C277.625 180.087 277.352 180.691 276.91 181.161C276.656 181.427 276.352 181.64 276.016 181.788C275.68 181.936 275.318 182.017 274.95 182.025C274.583 182.033 274.218 181.969 273.875 181.836C273.533 181.703 273.22 181.504 272.954 181.25C272.936 181.232 272.918 181.214 272.9 181.196Z" fill="#FFB6B6"/>
<path d="M247.747 263.493L243.268 263.493L241.137 246.215L247.748 246.216L247.747 263.493Z" fill="#FFB6B6"/>
<path d="M247.904 268.166L234.13 268.165V267.991C234.13 266.569 234.695 265.206 235.701 264.2C236.706 263.195 238.07 262.63 239.491 262.63H239.492L242.008 260.721L246.702 262.63L247.905 262.63L247.904 268.166Z" fill="#2F2E41"/>
<path d="M267.2 263.493L262.721 263.493L260.59 246.215L267.201 246.216L267.2 263.493Z" fill="#FFB6B6"/>
<path d="M267.358 268.166L253.583 268.165V267.991C253.584 266.569 254.149 265.206 255.154 264.2C256.159 263.195 257.523 262.63 258.945 262.63H258.945L261.461 260.721L266.156 262.63L267.358 262.63L267.358 268.166Z" fill="#2F2E41"/>
<path d="M234.477 170.625C234.477 170.625 229.378 177.733 233.058 190.014C236.739 202.294 234.673 213.273 235.706 215.474C236.739 217.675 238.818 219.766 237.1 221.435C235.382 223.104 234.477 224.461 235.834 224.914C237.191 225.366 241.715 257.035 241.715 257.035L249.406 257.487C249.406 257.487 252.192 242.776 249.216 230.904C249.216 230.904 249.869 222.286 248.507 219.755C247.144 217.223 247.411 219.506 247.504 216.329C247.555 214.031 247.89 211.748 248.501 209.532C248.954 207.723 249.216 189.484 249.216 189.484L259.214 212.013C259.514 212.847 259.627 213.737 259.544 214.619C259.359 215.866 259.357 217.729 259.584 218.381C259.811 219.033 260.064 219.17 259.938 220.458C259.811 221.747 259.811 255.923 259.811 255.923H268.407L272.479 221.747C271.746 220.935 271.137 220.021 270.669 219.033C269.764 217.223 269.729 217.123 270.199 215.816C270.669 214.509 270.669 211.962 270.669 211.199C270.669 210.437 271.139 175.829 265.249 170.739C259.359 165.649 234.477 170.625 234.477 170.625Z" fill="#2F2E41"/>
<path d="M260.873 116.298L252.286 114.073L248.278 108.545L238.759 109.715L236.732 117.256L229.956 121.189C229.956 121.189 233.701 160.807 232.81 162.983C231.919 165.158 228.725 164.978 231.453 167.783C234.181 170.587 234.543 169.457 233.91 172.51C233.276 175.563 228.661 178.794 233.91 178.762C239.158 178.73 270.826 178.278 269.921 174.658C269.016 171.039 269.031 171.958 267.666 169.689C266.302 167.42 265.384 168.688 265.843 165.339C266.302 161.991 265.85 159.729 265.85 157.919C265.85 156.11 264.334 139.666 264.334 139.666L260.873 116.298Z" fill="#3F3D56"/>
<path d="M234.082 120.429C234.082 120.429 225.586 119.465 223.776 123.537C221.967 127.608 217.406 136.087 217.406 136.087C217.406 136.087 213.85 132.367 213.506 130.681C213.214 129.25 213.054 131.641 210.665 129.052C209.595 127.892 210.5 127.892 209.142 127.44L206.428 126.535L201.904 130.607C201.904 130.607 201.816 135.526 204.166 135.583C206.517 135.64 203.261 134.678 206.428 137.845C208.063 139.48 206.563 139.209 209.289 140.874C212.014 142.538 211.706 142.531 212.538 143.439C213.371 144.347 217.838 145.009 217.838 145.009L237.843 133.938L234.082 120.429Z" fill="#3F3D56"/>
<path d="M256.408 118.01C256.408 118.01 260.052 112.672 266.278 119.607C272.505 126.541 277.161 158.199 276.869 159.335C276.577 160.472 274.935 159.82 276.887 161.729C278.839 163.639 280.196 162.281 278.839 163.639C277.482 164.996 274.649 166.273 276.97 166.765C279.291 167.258 270.262 169.968 270.262 169.968C270.262 169.968 268.947 169.487 268.891 166.317C268.86 164.537 269.765 163.632 268.407 163.18C267.05 162.727 268.719 159.706 268.576 159.184C268.434 158.662 259.838 135.59 259.838 135.59L256.408 118.01Z" fill="#3F3D56"/>
<path d="M242.089 107.599C247.85 107.599 252.52 102.929 252.52 97.1681C252.52 91.4075 247.85 86.7376 242.089 86.7376C236.329 86.7376 231.659 91.4075 231.659 97.1681C231.659 102.929 236.329 107.599 242.089 107.599Z" fill="#FFB6B6"/>
<path d="M248.954 105.272C246.488 103.345 249.859 94.8668 245.787 96.6765C245.787 96.6765 240.811 93.5096 239.811 95.5907C238.653 98.0004 234.536 96.9072 232.007 96.0567C232.206 95.5946 232.347 95.11 232.428 94.6135C231.961 94.9813 231.466 95.3126 230.948 95.6043C230.601 95.4187 230.294 95.1666 230.044 94.8623C229.797 94.5798 229.642 94.2285 229.601 93.8557C229.56 93.4829 229.634 93.1064 229.813 92.7767C230.234 92.1298 231.102 91.9308 231.613 91.3562C231.672 91.2754 231.711 91.1815 231.726 91.0825C231.741 90.9835 231.731 90.8824 231.698 90.7879C231.637 90.5567 231.628 90.315 231.671 90.0798C231.715 89.8447 231.809 89.622 231.948 89.4276C232.087 89.2331 232.268 89.0718 232.476 88.955C232.685 88.8382 232.916 88.7689 233.155 88.7519C233.251 88.7548 233.346 88.7341 233.432 88.6915C233.861 88.4289 234.258 88.116 234.613 87.7596C234.018 87.7883 233.422 87.7717 232.83 87.7098C232.708 87.6962 232.586 87.6827 232.464 87.6646C232.69 87.1337 233.028 86.6579 233.455 86.2699C233.883 85.8818 234.388 85.5906 234.939 85.4161C236.1 85.0651 237.309 84.8957 238.522 84.914C239.223 84.8913 239.924 84.8687 240.621 84.8461C242.098 84.7409 243.583 84.7925 245.05 84.9999C246.617 85.2858 248.101 85.9141 249.397 86.8401C250.693 87.766 251.768 88.9667 252.546 90.3564C254.08 93.1387 255.74 102.105 248.954 105.272Z" fill="#2F2E41"/>
<path d="M222.337 154.387L168.569 173.397C167.24 173.865 165.779 173.787 164.507 173.18C163.235 172.573 162.256 171.485 161.785 170.157L152.548 144.032C152.08 142.703 152.158 141.242 152.766 139.97C153.373 138.698 154.46 137.719 155.788 137.248L209.557 118.238C210.886 117.769 212.347 117.848 213.619 118.455C214.891 119.062 215.87 120.15 216.341 121.478L225.578 147.603C226.046 148.932 225.968 150.393 225.36 151.665C224.753 152.937 223.666 153.916 222.337 154.387Z" fill="#4A9DFF"/>
<path d="M165.214 143.314C161.65 145.659 157.082 143.894 155.485 141.323L155.739 141.178C158.773 139.287 163.279 140.341 165.214 143.314Z" fill="white"/>
<path d="M209.876 149.967C209.505 150.121 209.106 150.197 208.704 150.19C208.303 150.183 207.907 150.093 207.541 149.925C206.011 149.165 205.293 146.911 204.716 145.099C204.548 144.572 204.39 144.074 204.228 143.668L204.226 143.661C203.945 142.854 203.994 141.969 204.362 141.198C204.73 140.427 205.388 139.832 206.192 139.543L213.424 136.986C213.795 136.832 214.193 136.756 214.595 136.763C214.996 136.77 215.392 136.86 215.756 137.027C217.286 137.787 218.005 140.04 218.582 141.851C218.751 142.379 218.91 142.878 219.072 143.285C219.354 144.093 219.306 144.98 218.938 145.752C218.57 146.525 217.912 147.121 217.107 147.411L209.876 149.967Z" fill="white"/>
<path d="M165.559 157.162C165.43 157.213 165.29 157.228 165.153 157.205C165.016 157.182 164.888 157.123 164.782 157.033C164.659 156.925 164.565 156.787 164.51 156.632C164.456 156.477 164.442 156.311 164.47 156.149C164.496 156.01 164.56 155.881 164.655 155.776C164.75 155.671 164.872 155.595 165.008 155.555L167.761 154.582C167.891 154.528 168.034 154.511 168.174 154.533C168.314 154.555 168.444 154.615 168.552 154.707C168.676 154.815 168.769 154.953 168.824 155.107C168.879 155.262 168.892 155.428 168.864 155.59C168.838 155.728 168.773 155.857 168.678 155.962C168.583 156.067 168.461 156.143 168.326 156.183L165.573 157.156L165.559 157.162Z" fill="white"/>
<path d="M164.097 163.407C163.855 163.452 163.606 163.43 163.376 163.344C163.145 163.258 162.943 163.111 162.79 162.919C162.612 162.689 162.496 162.417 162.453 162.129C162.411 161.842 162.443 161.548 162.547 161.276C162.639 161.043 162.795 160.84 162.996 160.69C163.197 160.54 163.435 160.449 163.685 160.426L173.938 156.985C174.183 156.935 174.438 156.954 174.673 157.04C174.909 157.126 175.116 157.275 175.272 157.471C175.45 157.701 175.566 157.973 175.609 158.26C175.651 158.548 175.619 158.842 175.515 159.113C175.421 159.346 175.266 159.548 175.065 159.697C174.864 159.847 174.626 159.939 174.377 159.962L164.124 163.403L164.097 163.407Z" fill="white"/>
<path d="M218.352 127.165L154.742 149.655L154.849 149.959L218.46 127.469L218.352 127.165Z" fill="white"/>
<path d="M208.238 144.631C209.237 144.631 210.047 143.821 210.047 142.822C210.047 141.822 209.237 141.012 208.238 141.012C207.238 141.012 206.428 141.822 206.428 142.822C206.428 143.821 207.238 144.631 208.238 144.631Z" fill="#4A9DFF"/>
<path d="M214.119 145.084C214.868 145.084 215.476 144.476 215.476 143.726C215.476 142.977 214.868 142.369 214.119 142.369C213.369 142.369 212.762 142.977 212.762 143.726C212.762 144.476 213.369 145.084 214.119 145.084Z" fill="#4A9DFF"/>
<path d="M2.38282e-06 268.791C-0.000208469 268.862 0.0135761 268.932 0.0405583 268.997C0.0675405 269.063 0.107192 269.122 0.157228 269.172C0.207264 269.222 0.266697 269.262 0.332112 269.289C0.397527 269.316 0.467632 269.329 0.538392 269.329H324.138C324.281 269.329 324.418 269.272 324.519 269.172C324.62 269.071 324.677 268.934 324.677 268.791C324.677 268.648 324.62 268.511 324.519 268.41C324.418 268.309 324.281 268.253 324.138 268.253H0.538364C0.467607 268.252 0.397509 268.266 0.332098 268.293C0.266687 268.32 0.207254 268.36 0.157221 268.41C0.107188 268.46 0.0675396 268.519 0.0405583 268.585C0.013577 268.65 -0.00020605 268.72 2.38282e-06 268.791Z" fill="#CCCCCC"/>
<path d="M112.492 257.125C112.232 257.137 111.975 257.069 111.755 256.929C111.535 256.79 111.363 256.587 111.262 256.346C111.162 256.106 111.138 255.841 111.193 255.586C111.248 255.332 111.381 255.1 111.572 254.924L111.659 254.578C111.647 254.55 111.636 254.522 111.624 254.495C111.362 253.876 110.923 253.348 110.362 252.978C109.801 252.607 109.143 252.411 108.471 252.414C107.798 252.416 107.142 252.617 106.584 252.992C106.025 253.366 105.59 253.897 105.333 254.518C104.304 256.996 102.994 259.479 102.671 262.099C102.529 263.258 102.589 264.432 102.848 265.569C100.431 260.297 99.1764 254.567 99.1683 248.768C99.1678 247.312 99.2486 245.858 99.4105 244.412C99.5442 243.226 99.7298 242.049 99.9672 240.88C101.263 234.538 104.044 228.594 108.082 223.536C110.037 222.47 111.618 220.83 112.612 218.837C112.972 218.121 113.226 217.356 113.367 216.567C113.147 216.596 112.536 213.238 112.702 213.032C112.395 212.565 111.845 212.333 111.509 211.878C109.84 209.615 107.541 210.011 106.34 213.086C103.776 214.38 103.751 216.527 105.324 218.591C106.325 219.905 106.463 221.682 107.341 223.088C107.251 223.204 107.157 223.316 107.067 223.431C105.415 225.556 103.975 227.837 102.768 230.242C103.061 227.547 102.711 224.822 101.746 222.289C100.767 219.929 98.9334 217.941 97.3185 215.901C95.3786 213.45 91.4009 214.519 91.0591 217.626C91.0558 217.656 91.0526 217.686 91.0494 217.716C91.2893 217.852 91.5241 217.995 91.7539 218.147C92.0425 218.34 92.2661 218.616 92.3955 218.938C92.5248 219.26 92.5539 219.613 92.4788 219.952C92.4037 220.291 92.228 220.6 91.9747 220.837C91.7214 221.074 91.4023 221.23 91.0593 221.282L91.0241 221.288C91.1096 222.152 91.2606 223.009 91.476 223.851C89.4042 231.863 93.877 234.781 100.264 234.912C100.405 234.984 100.542 235.057 100.683 235.125C99.4703 238.562 98.7096 242.142 98.4201 245.775C98.2562 247.918 98.2658 250.071 98.449 252.213L98.4381 252.137C97.9754 249.755 96.705 247.606 94.8414 246.053C92.0735 243.779 88.1629 242.942 85.1768 241.114C84.8595 240.911 84.4905 240.802 84.1134 240.801C83.7362 240.8 83.3667 240.907 83.0484 241.109C82.7301 241.311 82.4762 241.6 82.3167 241.942C82.1572 242.284 82.0988 242.664 82.1484 243.038C82.1524 243.065 82.1564 243.091 82.1606 243.118C82.6057 243.299 83.0391 243.508 83.4583 243.743C83.6982 243.878 83.933 244.022 84.1627 244.174C84.4513 244.367 84.675 244.642 84.8043 244.964C84.9337 245.287 84.9627 245.64 84.8876 245.979C84.8125 246.318 84.6368 246.626 84.3835 246.864C84.1302 247.101 83.8112 247.256 83.4681 247.309L83.433 247.315C83.4077 247.318 83.386 247.322 83.3607 247.325C84.1213 249.141 85.1888 250.813 86.5164 252.267C87.8118 259.261 93.3758 259.925 99.3274 257.888H99.331C99.984 260.726 100.93 263.488 102.154 266.13H112.24C112.276 266.018 112.308 265.902 112.341 265.79C111.407 265.849 110.47 265.793 109.55 265.624C110.298 264.706 111.047 263.78 111.795 262.862C111.812 262.845 111.827 262.827 111.842 262.808C112.221 262.338 112.605 261.872 112.984 261.402L112.984 261.401C113.005 259.961 112.839 258.523 112.493 257.125L112.492 257.125Z" fill="#F2F2F2"/>
</svg>
