<svg width="25" height="25" viewBox="0 0 25 25" fill="none" xmlns="http://www.w3.org/2000/svg">
<path d="M21.25 25H3.75C3.28333 25 2.875 24.8214 2.525 24.4643C2.175 24.1071 2 23.6905 2 23.2143V7.44048C2 6.96429 2.175 6.54762 2.525 6.19048C2.875 5.83333 3.28333 5.65476 3.75 5.65476H6.95833C6.95833 4.0873 7.47361 2.75298 8.50417 1.65179C9.53472 0.550595 10.8181 0 12.3542 0C13.8903 0 15.2222 0.550595 16.35 1.65179C17.4778 2.75298 18.0417 4.0873 18.0417 5.65476H21.25C21.7167 5.65476 22.125 5.83333 22.475 6.19048C22.825 6.54762 23 6.96429 23 7.44048V23.2143C23 23.6905 22.825 24.1071 22.475 24.4643C22.125 24.8214 21.7167 25 21.25 25ZM8.70833 5.65476H16.2917C16.2917 4.56349 15.9271 3.64583 15.1979 2.90179C14.4687 2.15774 13.5694 1.78571 12.5 1.78571C11.4306 1.78571 10.5312 2.15774 9.80208 2.90179C9.07292 3.64583 8.70833 4.56349 8.70833 5.65476ZM21.25 23.2143V7.44048H3.75V23.2143H21.25ZM12.5 14.5833C13.9194 14.5833 15.2125 14.0724 16.3792 13.0506C17.5458 12.0288 18.1292 10.8829 18.1292 9.6131C18.1292 9.39484 18.0417 9.20139 17.8667 9.03274C17.6917 8.86409 17.4778 8.77976 17.225 8.77976C17.0111 8.77976 16.8215 8.85417 16.6562 9.00298C16.491 9.15179 16.3889 9.34524 16.35 9.58333C16.1556 10.5159 15.6938 11.2847 14.9646 11.8899C14.2354 12.495 13.4139 12.7976 12.5 12.7976C11.5861 12.7976 10.7646 12.495 10.0354 11.8899C9.30625 11.2847 8.84444 10.5159 8.65 9.58333C8.61111 9.34524 8.50417 9.15179 8.32917 9.00298C8.15417 8.85417 7.95972 8.77976 7.74583 8.77976C7.5125 8.77976 7.30833 8.86409 7.13333 9.03274C6.95833 9.20139 6.87083 9.39484 6.87083 9.6131C6.87083 10.8829 7.44931 12.0288 8.60625 13.0506C9.76319 14.0724 11.0611 14.5833 12.5 14.5833Z" fill="black"/>
</svg>
