<svg width="100" height="100" viewBox="0 0 100 100" fill="none" xmlns="http://www.w3.org/2000/svg">
<path d="M0 20C0 8.9543 8.95431 0 20 0H80C91.0457 0 100 8.95431 100 20V80C100 91.0457 91.0457 100 80 100H20C8.9543 100 0 91.0457 0 80V20Z" fill="#F4F4F4"/>
<path fill-rule="evenodd" clip-rule="evenodd" d="M76.6949 63.3933C77.5486 64.617 77.6347 66.5455 76.7278 68.0405C75.9188 69.3755 71.073 74.4985 69.4963 76.1447C68.1302 77.5745 66.2846 79.0059 64.4687 79.0059H26.4475C21.3094 79.0059 21 77.2624 21 73.3191V57.3255C21 53.2987 22.1865 52.1348 25.6959 52.1348H64.4687C66.2846 52.1348 67.9006 53.0631 69.7568 54.9515C71.3313 56.5547 76.04 62.4518 76.6949 63.3933Z" fill="#33CCCC"/>
<path fill-rule="evenodd" clip-rule="evenodd" d="M29.6192 58.3194V58.2141C29.6192 57.6995 29.5756 57.1915 28.7346 57.1915H25.5569C24.818 57.1915 24.7712 57.6004 24.7712 58.2355V62.4624C26.3181 60.2479 28.033 59.2193 29.6192 58.3194ZM50.9352 73.5927V73.3658H50.9373V63.1919C50.9373 58.9256 49.0634 56.7927 45.3154 56.7932C44.2772 56.7837 43.257 57.063 42.3684 57.5999C41.4764 58.1381 40.6195 58.8898 39.7977 59.855C39.3937 58.806 38.7842 58.0335 37.9691 57.5373C37.1541 57.0412 36.0987 56.7931 34.8031 56.7931C33.3019 56.7931 31.5583 57.3191 30.3219 58.3374C30.0444 58.6147 24.7712 62.7699 24.7712 67.0373V73.5505C24.7712 73.7577 24.6713 74.5435 25.5516 74.5435H28.859C29.8871 74.5435 29.7861 73.8695 29.7861 73.5922V63.0582C30.3442 62.3167 31.4861 60.4853 33.3391 60.4853C34.0504 60.4853 34.5624 60.7263 34.8754 61.2083C35.1883 61.6903 35.3456 62.4983 35.3474 63.6323V71.8598H35.3431V73.5502C35.3431 73.7574 35.2432 74.5432 36.1224 74.5432H39.3884C40.4175 74.5432 40.3165 73.8691 40.3165 73.5919V73.365H40.3208V63.0582C40.9193 62.3167 42.1111 60.4853 43.8727 60.4853C44.5978 60.4853 45.1205 60.7263 45.4409 61.2083C45.7613 61.6903 45.9211 62.4983 45.9203 63.6323V71.8598H45.9171V73.5502C45.9171 73.7574 45.8183 74.5432 46.6975 74.5432H50.006C51.0362 74.5432 50.9352 73.87 50.9352 73.5927ZM69.1532 69.4563C67.9763 72.6238 65.159 74.3939 61.6687 74.3939C56.6113 74.3939 53.2709 70.9447 53.2709 65.7717C53.2709 60.6609 56.7378 56.9562 61.5103 56.9562C66.2306 56.9562 69.3977 60.2471 69.5987 65.5481C69.6242 66.2255 69.4264 66.8239 68.5812 66.8239H57.8509C57.9147 69.6665 59.284 71.1998 61.7006 71.1998C63.1741 71.1998 64.048 70.5636 64.8081 69.3168C65.1398 68.7746 65.8171 68.8045 65.8171 68.8045H68.5802C69.032 68.8037 69.2319 69.2452 69.1532 69.4563ZM61.5103 60.2451C59.5052 60.2451 58.1061 61.6501 57.8509 63.9508H65.041C64.8496 61.938 63.7673 60.2451 61.5103 60.2451Z" fill="white"/>
<path fill-rule="evenodd" clip-rule="evenodd" d="M40.309 23.2965C39.9061 22.6533 39.3831 22.0938 38.7685 21.6486C38.1541 21.2164 37.4791 20.8775 36.7655 20.643C35.9734 20.3845 35.1551 20.2143 34.3256 20.1354C33.3767 20.042 32.4236 19.9969 31.47 20.0002H23.1116C22.3599 20.0002 21.5721 20.4942 21.5721 21.4261V34.9921C22.631 37.253 24.6935 39.6533 27.0378 40.8004V38.1094C27.0378 36.6897 28.1062 36.3725 28.5474 36.3725H31.0192C34.4234 36.3725 37.0213 35.657 38.8132 34.2259C40.6046 32.7969 41.5004 30.6741 41.5008 27.8576C41.506 27.0438 41.4117 26.2325 41.2201 25.4416C41.03 24.6835 40.7226 23.9597 40.309 23.2965ZM35.4387 30.2635C35.1504 30.7646 34.7202 31.1692 34.2023 31.4262C33.641 31.6943 33.0345 31.8552 32.4141 31.9005C31.739 31.9608 31.0415 31.991 30.3218 31.9911H27.9733C27.3992 31.9911 27.0378 31.5233 27.0378 30.8322V25.2861C27.0378 24.6641 27.4428 24.4031 27.9287 24.4031H30.3218C31.1011 24.4031 31.8322 24.4257 32.5151 24.4708C33.1293 24.4988 33.7324 24.6445 34.2916 24.9002C34.7905 25.1376 35.2034 25.5244 35.4728 26.0068C35.7577 26.503 35.9001 27.2029 35.9001 28.1066C35.9001 29.0248 35.7463 29.7438 35.4387 30.2635ZM27.0378 41.6765C24.4596 40.6452 22.731 39.4145 21.5721 38.1945V44.7436C21.5721 44.7436 21.4765 45.8116 22.5151 45.8116H26.1617C27.1611 45.8116 27.0378 44.7436 27.0378 44.7436V41.6765ZM78.7119 27.1362H75.4395C74.774 27.1362 74.336 27.416 74.0723 28.1481C73.8065 28.8803 70.3396 38.5502 70.3396 38.5502C70.3396 38.5502 67.0215 29.08 66.7611 28.3467C66.5006 27.6135 66.0711 27.1362 65.2982 27.1362H62.2916C61.2317 27.1362 61.2317 27.9703 61.3624 28.301C61.4698 28.5683 65.5874 39.8659 67.1555 44.1694C67.5255 45.1855 67.6711 45.4912 67.6828 45.8678C67.6945 46.2443 67.3118 47.0346 67.0481 47.488C66.9265 47.6949 66.787 47.8907 66.6314 48.0735C69.706 47.1521 73.2494 43.8085 75.0823 40.1862C76.8939 35.138 79.2838 28.4695 79.387 28.1284C79.5539 27.5761 79.5518 27.1362 78.7119 27.1362ZM64.2627 49.0345C63.9786 49.0296 63.6951 49.0091 63.4132 48.9732C63.0677 48.9273 62.4224 48.9919 62.4224 49.5579V52.0873C62.4224 53.0524 62.8838 53.1168 63.1368 53.174C63.9006 53.3333 64.6795 53.4087 65.4598 53.3987C66.4932 53.3987 67.3926 53.2104 68.158 52.8339C68.9309 52.4509 69.6194 51.9174 70.1833 51.2646C70.8052 50.5375 71.3305 49.7331 71.7462 48.8715C72.2033 47.9459 72.642 46.926 73.0623 45.8118C73.0623 45.8118 73.242 45.3085 73.5386 44.4837C72.636 45.3955 68.3824 49.4339 64.2627 49.0345ZM59.3478 30.1387C59.1704 29.716 58.9279 29.3236 58.6291 28.976C58.3316 28.6423 57.9909 28.3499 57.6159 28.1066C57.2116 27.8431 56.7825 27.6199 56.3348 27.44C55.8777 27.2612 55.4074 27.1179 54.9283 27.0114C54.3841 26.892 53.8319 26.8128 53.2762 26.7743C52.6755 26.7296 52.0004 26.707 51.2509 26.7067C46.2934 26.7067 43.4708 28.275 42.7829 31.4118C42.5586 32.3852 43.5208 32.4424 43.5208 32.4424H46.5698C47.3661 32.4424 47.3321 32.1855 47.718 31.4643C47.8577 31.0724 48.1081 30.7295 48.4389 30.4773C49.0247 30.026 49.9021 29.8003 51.0712 29.8003C52.196 29.8003 53.0132 30.0183 53.5228 30.4544C54.0324 30.8906 54.3322 31.553 54.4222 32.442C54.4222 33.4726 54.1012 34.16 52.8573 34.16C49.822 34.0498 46.5613 34.3939 44.7242 35.4475C42.8871 36.5011 41.8495 38.5626 41.8495 40.7754C41.8495 41.6781 42.0108 42.4684 42.3332 43.1463C42.6456 43.8108 43.1073 44.3941 43.6824 44.8509C44.2928 45.3275 44.9927 45.6768 45.7406 45.8784C46.5904 46.1115 47.4684 46.2257 48.3496 46.2174C49.6689 46.2174 50.8349 46.0517 51.8473 45.7203C52.8594 45.3896 54.4254 44.2986 54.6253 44.1395V44.7217C54.6253 45.2978 54.7996 45.8115 55.4864 45.8115H59.0331C59.7507 45.8115 59.9102 45.2978 59.9102 44.6654V33.7299C59.9161 33.0501 59.8714 32.3708 59.7762 31.6977C59.6998 31.162 59.5558 30.6382 59.3478 30.1387ZM54.5126 40.8611C54.5126 40.8611 53.5972 42.7654 50.3291 42.7654C49.4297 42.7654 48.6986 42.5622 48.1359 42.156C47.573 41.7496 47.2917 41.1173 47.2917 40.259C47.2917 39.1439 47.7492 38.3571 48.6642 37.8982C49.5785 37.4396 51.4093 37.1775 52.7807 37.2097C54.1522 37.2419 54.5126 38.1094 54.5126 38.7088V40.8611Z" fill="#333333"/>
</svg>
