<svg width="25" height="25" viewBox="0 0 25 25" fill="none" xmlns="http://www.w3.org/2000/svg">
<path d="M13 12.1787C11.625 12.1787 10.5 11.7504 9.625 10.8937C8.75 10.037 8.3125 8.93559 8.3125 7.58937C8.3125 6.24316 8.75 5.14171 9.625 4.28502C10.5 3.42834 11.625 3 13 3C14.375 3 15.5 3.42834 16.375 4.28502C17.25 5.14171 17.6875 6.24316 17.6875 7.58937C17.6875 8.93559 17.25 10.037 16.375 10.8937C15.5 11.7504 14.375 12.1787 13 12.1787ZM21.125 22H4.875C4.35417 22 3.91146 21.8215 3.54688 21.4646C3.18229 21.1076 3 20.6742 3 20.1643V19.124C3 18.3489 3.19792 17.686 3.59375 17.1353C3.98958 16.5845 4.5 16.1664 5.125 15.8808C6.52083 15.2689 7.85938 14.81 9.14062 14.504C10.4219 14.1981 11.7083 14.0451 13 14.0451C14.2917 14.0451 15.5729 14.2032 16.8438 14.5193C18.1146 14.8355 19.4479 15.2893 20.8438 15.8808C21.4896 16.1664 22.0104 16.5845 22.4062 17.1353C22.8021 17.686 23 18.3489 23 19.124V20.1643C23 20.6742 22.8177 21.1076 22.4531 21.4646C22.0885 21.8215 21.6458 22 21.125 22ZM4.875 20.1643H21.125V19.124C21.125 18.7976 21.026 18.4866 20.8281 18.1908C20.6302 17.8951 20.3854 17.6758 20.0938 17.533C18.7604 16.9007 17.5417 16.4673 16.4375 16.2327C15.3333 15.9981 14.1875 15.8808 13 15.8808C11.8125 15.8808 10.6562 15.9981 9.53125 16.2327C8.40625 16.4673 7.1875 16.9007 5.875 17.533C5.58333 17.6758 5.34375 17.8951 5.15625 18.1908C4.96875 18.4866 4.875 18.7976 4.875 19.124V20.1643ZM13 10.343C13.8125 10.343 14.4844 10.0829 15.0156 9.5628C15.5469 9.04267 15.8125 8.38486 15.8125 7.58937C15.8125 6.79388 15.5469 6.13607 15.0156 5.61594C14.4844 5.09581 13.8125 4.83575 13 4.83575C12.1875 4.83575 11.5156 5.09581 10.9844 5.61594C10.4531 6.13607 10.1875 6.79388 10.1875 7.58937C10.1875 8.38486 10.4531 9.04267 10.9844 9.5628C11.5156 10.0829 12.1875 10.343 13 10.343Z" fill="black"/>
</svg>
